<svg xmlns="http://www.w3.org/2000/svg" viewBox="0 0 400 800" width="400" height="800" preserveAspectRatio="xMidYMid slice">
<rect x="0" y="0" width="400" height="800" fill="#8CC96A"/>
<ellipse cx="120" cy="150" rx="80" ry="44" fill="#7DBE5C"/>
<ellipse cx="300" cy="360" rx="90" ry="50" fill="#7DBE5C"/>
<ellipse cx="110" cy="560" rx="80" ry="44" fill="#7DBE5C"/>
<path d="M0 690 C60 670, 140 672, 200 690 C260 708, 340 708, 400 690 L400 800 L0 800 Z" fill="#F5D78E"/>
<path d="M0 724 C50 708, 150 708, 200 724 C250 740, 350 740, 400 724 L400 800 L0 800 Z" fill="#E9C77E"/>
<path d="M0 744 C50 728, 150 728, 200 744 C250 760, 350 760, 400 744 L400 800 L0 800 Z" fill="#3E8EDE"/>
<path d="M-400 744 C-350 728, -250 728, -200 744 C-150 760, -50 760, 0 744 C50 728, 150 728, 200 744 C250 760, 350 760, 400 744 C450 728, 550 728, 600 744 C650 760, 750 760, 800 744" fill="none" stroke="#FFFFFF" stroke-width="10"/>
<ellipse cx="66.8" cy="71.6" rx="36.8" ry="32.0" fill="#3B2A20" fill-opacity="0.12"/>
<circle cx="62.0" cy="62.0" r="40.0" fill="#3B2A20"/>
<circle cx="39.6" cy="73.2" r="31.0" fill="#3B2A20"/>
<circle cx="84.4" cy="73.2" r="31.0" fill="#3B2A20"/>
<circle cx="62.0" cy="84.4" r="29.1" fill="#3B2A20"/>
<circle cx="62.0" cy="62.0" r="32.0" fill="#4E9E45"/>
<circle cx="39.6" cy="73.2" r="23.0" fill="#4E9E45"/>
<circle cx="84.4" cy="73.2" r="23.0" fill="#4E9E45"/>
<circle cx="62.0" cy="84.4" r="21.1" fill="#4E9E45"/>
<circle cx="54.0" cy="54.0" r="14.4" fill="#6DBE5A"/>
<ellipse cx="342.8" cy="129.6" rx="36.8" ry="32.0" fill="#3B2A20" fill-opacity="0.12"/>
<circle cx="338.0" cy="120.0" r="40.0" fill="#3B2A20"/>
<circle cx="315.6" cy="131.2" r="31.0" fill="#3B2A20"/>
<circle cx="360.4" cy="131.2" r="31.0" fill="#3B2A20"/>
<circle cx="338.0" cy="142.4" r="29.1" fill="#3B2A20"/>
<circle cx="338.0" cy="120.0" r="32.0" fill="#4E9E45"/>
<circle cx="315.6" cy="131.2" r="23.0" fill="#4E9E45"/>
<circle cx="360.4" cy="131.2" r="23.0" fill="#4E9E45"/>
<circle cx="338.0" cy="142.4" r="21.1" fill="#4E9E45"/>
<circle cx="330.0" cy="112.0" r="14.4" fill="#6DBE5A"/>
<ellipse cx="64.5" cy="271.0" rx="34.5" ry="30.0" fill="#3B2A20" fill-opacity="0.12"/>
<circle cx="60.0" cy="262.0" r="38.0" fill="#3B2A20"/>
<circle cx="39.0" cy="272.5" r="29.6" fill="#3B2A20"/>
<circle cx="81.0" cy="272.5" r="29.6" fill="#3B2A20"/>
<circle cx="60.0" cy="283.0" r="27.8" fill="#3B2A20"/>
<circle cx="60.0" cy="262.0" r="30.0" fill="#4E9E45"/>
<circle cx="39.0" cy="272.5" r="21.6" fill="#4E9E45"/>
<circle cx="81.0" cy="272.5" r="21.6" fill="#4E9E45"/>
<circle cx="60.0" cy="283.0" r="19.8" fill="#4E9E45"/>
<circle cx="52.5" cy="254.5" r="13.5" fill="#6DBE5A"/>
<ellipse cx="341.1" cy="332.2" rx="39.1" ry="34.0" fill="#3B2A20" fill-opacity="0.12"/>
<circle cx="336.0" cy="322.0" r="42.0" fill="#3B2A20"/>
<circle cx="312.2" cy="333.9" r="32.5" fill="#3B2A20"/>
<circle cx="359.8" cy="333.9" r="32.5" fill="#3B2A20"/>
<circle cx="336.0" cy="345.8" r="30.4" fill="#3B2A20"/>
<circle cx="336.0" cy="322.0" r="34.0" fill="#4E9E45"/>
<circle cx="312.2" cy="333.9" r="24.5" fill="#4E9E45"/>
<circle cx="359.8" cy="333.9" r="24.5" fill="#4E9E45"/>
<circle cx="336.0" cy="345.8" r="22.4" fill="#4E9E45"/>
<circle cx="327.5" cy="313.5" r="15.3" fill="#6DBE5A"/>
<ellipse cx="66.8" cy="461.6" rx="36.8" ry="32.0" fill="#3B2A20" fill-opacity="0.12"/>
<circle cx="62.0" cy="452.0" r="40.0" fill="#3B2A20"/>
<circle cx="39.6" cy="463.2" r="31.0" fill="#3B2A20"/>
<circle cx="84.4" cy="463.2" r="31.0" fill="#3B2A20"/>
<circle cx="62.0" cy="474.4" r="29.1" fill="#3B2A20"/>
<circle cx="62.0" cy="452.0" r="32.0" fill="#4E9E45"/>
<circle cx="39.6" cy="463.2" r="23.0" fill="#4E9E45"/>
<circle cx="84.4" cy="463.2" r="23.0" fill="#4E9E45"/>
<circle cx="62.0" cy="474.4" r="21.1" fill="#4E9E45"/>
<circle cx="54.0" cy="444.0" r="14.4" fill="#6DBE5A"/>
<ellipse cx="346.5" cy="539.0" rx="34.5" ry="30.0" fill="#3B2A20" fill-opacity="0.12"/>
<circle cx="342.0" cy="530.0" r="38.0" fill="#3B2A20"/>
<circle cx="321.0" cy="540.5" r="29.6" fill="#3B2A20"/>
<circle cx="363.0" cy="540.5" r="29.6" fill="#3B2A20"/>
<circle cx="342.0" cy="551.0" r="27.8" fill="#3B2A20"/>
<circle cx="342.0" cy="530.0" r="30.0" fill="#4E9E45"/>
<circle cx="321.0" cy="540.5" r="21.6" fill="#4E9E45"/>
<circle cx="363.0" cy="540.5" r="21.6" fill="#4E9E45"/>
<circle cx="342.0" cy="551.0" r="19.8" fill="#4E9E45"/>
<circle cx="334.5" cy="522.5" r="13.5" fill="#6DBE5A"/>
<ellipse cx="67.9" cy="613.8" rx="29.9" ry="26.0" fill="#3B2A20" fill-opacity="0.12"/>
<circle cx="64.0" cy="606.0" r="34.0" fill="#3B2A20"/>
<circle cx="45.8" cy="615.1" r="26.7" fill="#3B2A20"/>
<circle cx="82.2" cy="615.1" r="26.7" fill="#3B2A20"/>
<circle cx="64.0" cy="624.2" r="25.2" fill="#3B2A20"/>
<circle cx="64.0" cy="606.0" r="26.0" fill="#4E9E45"/>
<circle cx="45.8" cy="615.1" r="18.7" fill="#4E9E45"/>
<circle cx="82.2" cy="615.1" r="18.7" fill="#4E9E45"/>
<circle cx="64.0" cy="624.2" r="17.2" fill="#4E9E45"/>
<circle cx="57.5" cy="599.5" r="11.7" fill="#6DBE5A"/>
<ellipse cx="339.6" cy="629.2" rx="27.6" ry="24.0" fill="#3B2A20" fill-opacity="0.12"/>
<circle cx="336.0" cy="622.0" r="32.0" fill="#3B2A20"/>
<circle cx="319.2" cy="630.4" r="25.3" fill="#3B2A20"/>
<circle cx="352.8" cy="630.4" r="25.3" fill="#3B2A20"/>
<circle cx="336.0" cy="638.8" r="23.8" fill="#3B2A20"/>
<circle cx="336.0" cy="622.0" r="24.0" fill="#4E9E45"/>
<circle cx="319.2" cy="630.4" r="17.3" fill="#4E9E45"/>
<circle cx="352.8" cy="630.4" r="17.3" fill="#4E9E45"/>
<circle cx="336.0" cy="638.8" r="15.8" fill="#4E9E45"/>
<circle cx="330.0" cy="616.0" r="10.8" fill="#6DBE5A"/>
<circle cx="140" cy="330" r="19" fill="#D8433B" stroke="#3B2A20" stroke-width="6"/>
<circle cx="134" cy="324" r="4" fill="#FFFFFF"/>
<circle cx="147" cy="331" r="4" fill="#FFFFFF"/>
<circle cx="137" cy="338" r="4" fill="#FFFFFF"/>
<circle cx="270" cy="560" r="19" fill="#D8433B" stroke="#3B2A20" stroke-width="6"/>
<circle cx="264" cy="554" r="4" fill="#FFFFFF"/>
<circle cx="277" cy="561" r="4" fill="#FFFFFF"/>
<circle cx="267" cy="568" r="4" fill="#FFFFFF"/>
<circle cx="250" cy="140" r="19" fill="#D8433B" stroke="#3B2A20" stroke-width="6"/>
<circle cx="244" cy="134" r="4" fill="#FFFFFF"/>
<circle cx="257" cy="141" r="4" fill="#FFFFFF"/>
<circle cx="247" cy="148" r="4" fill="#FFFFFF"/>
<circle cx="160" cy="470" r="11" fill="#F2B632" stroke="#3B2A20" stroke-width="5"/>
<circle cx="280" cy="250" r="11" fill="#F2B632" stroke="#3B2A20" stroke-width="5"/>
</svg>
