<svg xmlns="http://www.w3.org/2000/svg" viewBox="0 0 400 400" width="400" height="400">
<ellipse cx="200" cy="352" rx="110" ry="17.6" fill="#3B2A20" fill-opacity="0.15"/>
<circle cx="200" cy="200" r="128" fill="#FFFFFF"/>
<path d="M200 72 A128 128 0 0 0 200 328 A64 128 0 0 1 200 72 Z" fill="#D8433B"/>
<path d="M200 72 A64 128 0 0 0 200 328 L200 72 Z" fill="#F2B632"/>
<path d="M200 72 L200 328 A64 128 0 0 0 200 72 Z" fill="#3E8EDE"/>
<path d="M200 72 A64 128 0 0 1 200 328 A128 128 0 0 0 200 72 Z" fill="#6DBE5A"/>
<path d="M200 72 A64 128 0 0 0 200 328 M200 72 L200 328 M200 72 A64 128 0 0 1 200 328" fill="none" stroke="#3B2A20" stroke-width="6" stroke-linecap="round" stroke-linejoin="round"/>
<circle cx="200" cy="200" r="128" fill="none" stroke="#3B2A20" stroke-width="8" stroke-linejoin="round" stroke-linecap="round"/>
<path d="M130 118 Q150 98 176 90" fill="none" stroke="#FFFFFF" stroke-width="10" stroke-linecap="round" stroke-linejoin="round"/>
</svg>
